<svg xmlns="http://www.w3.org/2000/svg" version="1.1" xmlns:xlink="http://www.w3.org/1999/xlink" xmlns:svgjs="http://svgjs.dev/svgjs" width="1500" height="1500" viewBox="0 0 1500 1500"><rect width="1500" height="1500" fill="#ffffff"></rect><g transform="matrix(0.6666666666666666,0,0,0.6666666666666666,249.39393939393938,438.5856950067477)"><svg viewBox="0 0 396 247" data-background-color="#ffffff" preserveAspectRatio="xMidYMid meet" height="935" width="1500" xmlns="http://www.w3.org/2000/svg" xmlns:xlink="http://www.w3.org/1999/xlink"><g id="tight-bounds" transform="matrix(1,0,0,1,0.2400000000000091,-0.09999999999999432)"><svg viewBox="0 0 395.52 247.2" height="247.2" width="395.52"><g><svg></svg></g><g><svg viewBox="0 0 395.52 247.2" height="247.2" width="395.52"><g transform="matrix(1,0,0,1,98.88006018688614,47.215199999999996)"><svg viewBox="0 0 197.7598796262277 152.7696" height="152.7696" width="197.7598796262277"><g><svg viewBox="0 0 197.7598796262277 152.7696" height="152.7696" width="197.7598796262277"><g><svg viewBox="0 0 244.43135999999998 188.82334053415147" height="152.7696" width="197.7598796262277"><g><svg viewBox="0 0 244.43135999999998 188.82334053415147" height="188.82334053415147" width="244.43135999999998"><g id="textblocktransform"><svg viewBox="0 0 244.43135999999998 188.82334053415147" height="188.82334053415147" width="244.43135999999998" id="textblock"><g><svg viewBox="0 0 244.43135999999998 123.3278550455005" height="123.3278550455005" width="244.43135999999998"><g transform="matrix(1,0,0,1,0,0)"><svg width="244.43135999999998" viewBox="2 -37.4 98.89 49.9" height="123.3278550455005" data-palette-color="#6f605b"><path d="M12.45 12.5L5.65 12.5Q4.2 12.5 3.1 11.45 2 10.4 2 8.85L2 8.85 2 3.4 6.7 4.5 6.7 6Q6.7 6.7 7.25 7.25 7.8 7.8 8.5 7.8L8.5 7.8 9.6 7.8Q10.4 7.8 10.9 7.25 11.4 6.7 11.4 6L11.4 6 11.4 0 5.65 0Q4.2 0 3.1-1.05 2-2.1 2-3.65L2-3.65 2-21.35Q2-22.9 3.1-23.95 4.2-25 5.65-25L5.65-25 16.1-25 16.1 8.85Q16.1 10.4 15.05 11.45 14 12.5 12.45 12.5L12.45 12.5ZM8.5-4.7L8.5-4.7 9.6-4.7Q10.4-4.7 10.9-5.25 11.4-5.8 11.4-6.5L11.4-6.5 11.4-20.3 8.5-20.3Q7.8-20.3 7.25-19.8 6.7-19.3 6.7-18.5L6.7-18.5 6.7-6.5Q6.7-5.8 7.25-5.25 7.8-4.7 8.5-4.7ZM32.7 0L22.25 0Q20.75 0 19.67-1.05 18.6-2.1 18.6-3.65L18.6-3.65 18.6-11.2Q18.6-12.7 19.67-13.78 20.75-14.85 22.25-14.85L22.25-14.85 26.15-14.85Q26.95-14.85 27.47-15.38 28-15.9 28-16.65L28-16.65 28-18.5Q28-19.25 27.47-19.78 26.95-20.3 26.15-20.3L26.15-20.3 20.75-20.3 21.8-25 29.05-25Q30.55-25 31.62-23.93 32.7-22.85 32.7-21.35L32.7-21.35 32.7 0ZM25.1-4.7L25.1-4.7 28-4.7 28-10.15 25.1-10.15Q24.35-10.15 23.82-9.63 23.3-9.1 23.3-8.35L23.3-8.35 23.3-6.5Q23.3-5.75 23.82-5.23 24.35-4.7 25.1-4.7ZM40.9 0L36.2 0 36.2-36.35 40.9-37.4 40.9 0ZM49.59 0L44.89 0 44.89-36.35 49.59-37.4 49.59 0ZM67.19 0L56.74 0Q55.24 0 54.17-1.07 53.09-2.15 53.09-3.65L53.09-3.65 53.09-21.4Q53.09-22.9 54.17-23.95 55.24-25 56.74-25L56.74-25 63.54-25Q65.09-25 66.14-23.95 67.19-22.9 67.19-21.4L67.19-21.4 67.19-13.8Q67.19-12.3 66.14-11.23 65.09-10.15 63.54-10.15L63.54-10.15 57.79-10.15 57.79-6.5Q57.79-5.75 58.32-5.23 58.84-4.7 59.64-4.7L59.64-4.7 66.14-4.7 67.19 0ZM57.79-18.5L57.79-14.85 60.69-14.85Q61.44-14.85 61.97-15.38 62.49-15.9 62.49-16.65L62.49-16.65 62.49-18.5Q62.49-19.25 61.97-19.78 61.44-20.3 60.69-20.3L60.69-20.3 59.64-20.3Q58.84-20.3 58.32-19.78 57.79-19.25 57.79-18.5L57.79-18.5ZM74.39 0L69.69 0 69.69-25 80.14-25Q81.64-25 82.71-23.93 83.79-22.85 83.79-21.35L83.79-21.35 83.79-15.9 79.09-16.95 79.09-18.45Q79.09-19.2 78.56-19.75 78.04-20.3 77.29-20.3L77.29-20.3 74.39-20.3 74.39 0ZM97.29 12.5L90.44 12.5Q88.89 12.5 87.84 11.45 86.79 10.4 86.79 8.85L86.79 8.85 86.79 3.4 91.49 4.5 91.49 6Q91.49 6.7 92.04 7.25 92.59 7.8 93.29 7.8L93.29 7.8 94.39 7.8Q95.09 7.8 95.64 7.25 96.19 6.7 96.19 6L96.19 6 96.19 0 90.44 0Q88.89 0 87.84-1.05 86.79-2.1 86.79-3.65L86.79-3.65 86.79-25 91.49-25 91.49-6.5Q91.49-5.8 92.04-5.25 92.59-4.7 93.29-4.7L93.29-4.7 96.19-4.7 96.19-25 100.89-25 100.89 8.85Q100.89 10.4 99.84 11.45 98.79 12.5 97.29 12.5L97.29 12.5Z" opacity="1" transform="matrix(1,0,0,1,0,0)" fill="#000000" class="wordmark-text-0" data-fill-palette-color="primary" id="text-0"></path></svg></g></svg></g><g transform="matrix(1,0,0,1,0,152.44260175322208)"><svg viewBox="0 0 244.43135999999998 36.38073878092939" height="36.38073878092939" width="244.43135999999998"><g transform="matrix(1,0,0,1,0,0)"><svg width="244.43135999999998" viewBox="3.61 -37.5 323.59999999999997 48.17" height="36.38073878092939" data-palette-color="#eeeeee"><path d="M14.01-26.59L13.96-23.88Q12.99-24.05 12.26-24.05L12.26-24.05Q10.01-24.05 8.48-22.51 6.96-20.97 6.32-18.24L6.32-18.24 6.32 0 3.61 0 3.61-26.42 6.27-26.42 6.32-22.46Q8.25-26.9 12.38-26.9L12.38-26.9Q13.45-26.9 14.01-26.59L14.01-26.59ZM21.75-26.42L21.75 0 19.02 0 19.02-26.42 21.75-26.42ZM18.63-34.03L18.63-34.03Q18.63-34.86 19.09-35.45 19.55-36.04 20.41-36.04 21.26-36.04 21.74-35.45 22.21-34.86 22.21-34.03 22.21-33.2 21.74-32.63 21.26-32.06 20.41-32.06 19.55-32.06 19.09-32.63 18.63-33.2 18.63-34.03ZM29.44-26.42L32.15-26.42 32.15 2.93Q32.15 10.67 26.31 10.67L26.31 10.67Q25.17 10.67 24.14 10.21L24.14 10.21 24.16 7.74Q25.12 8.06 25.97 8.06L25.97 8.06Q29.44 8.06 29.44 3.1L29.44 3.1 29.44-26.42ZM29.02-34.03L29.02-34.03Q29.02-34.86 29.47-35.45 29.93-36.04 30.78-36.04 31.64-36.04 32.11-35.45 32.59-34.86 32.59-34.03 32.59-33.2 32.11-32.63 31.64-32.06 30.78-32.06 29.93-32.06 29.47-32.63 29.02-33.2 29.02-34.03ZM54.09 0L45.38-13.21 42.62-10.13 42.62 0 39.89 0 39.89-37.5 42.62-37.5 42.62-13.65 44.89-16.53 53.07-26.42 56.44-26.42 47.16-15.26 57.32 0 54.09 0ZM74.77-6.49L74.77-6.49Q74.77-8.2 73.35-9.48 71.94-10.77 68.56-12.29 65.18-13.82 63.83-14.83 62.49-15.84 61.86-17.04 61.22-18.24 61.22-19.87L61.22-19.87Q61.22-22.92 63.42-24.91 65.62-26.9 69.11-26.9L69.11-26.9Q72.87-26.9 75.11-24.78 77.36-22.66 77.36-19.17L77.36-19.17 74.65-19.17Q74.65-21.41 73.11-22.89 71.57-24.37 69.11-24.37L69.11-24.37Q66.71-24.37 65.31-23.14 63.91-21.92 63.91-19.97L63.91-19.97Q63.91-18.38 64.98-17.38 66.05-16.38 69.62-14.67L69.62-14.67Q73.31-13.06 74.7-12.01 76.09-10.96 76.8-9.68 77.5-8.4 77.5-6.64L77.5-6.64Q77.5-3.37 75.23-1.44 72.96 0.49 69.25 0.49L69.25 0.49Q65.32 0.49 62.89-1.66 60.46-3.81 60.46-7.2L60.46-7.2 63.2-7.2Q63.32-4.74 64.85-3.38 66.37-2.03 69.25-2.03L69.25-2.03Q71.74-2.03 73.26-3.25 74.77-4.47 74.77-6.49ZM95-26.42L97.59-26.42 97.67-22.46Q100.13-26.9 104.75-26.9L104.75-26.9Q109.85-26.9 111.34-22.05L111.34-22.05Q112.58-24.46 114.55-25.68 116.51-26.9 118.83-26.9L118.83-26.9Q125.96-26.9 126.13-17.72L126.13-17.72 126.13 0 123.42 0 123.42-17.55Q123.37-20.97 122.15-22.64 120.93-24.32 118.15-24.32L118.15-24.32Q115.63-24.27 113.9-22.36 112.17-20.46 111.92-17.58L111.92-17.58 111.92 0 109.19 0 109.19-17.48Q109.19-20.95 107.91-22.63 106.63-24.32 103.92-24.32L103.92-24.32Q101.69-24.32 100.07-22.78 98.45-21.24 97.71-18.38L97.71-18.38 97.71 0 95 0 95-26.42ZM147.42 0L147.37-3.15Q145.12 0.49 140.41 0.49L140.41 0.49Q136.82 0.49 134.99-2 133.16-4.49 133.14-9.33L133.14-9.33 133.14-26.42 135.82-26.42 135.82-9.4Q135.82-5.81 137.09-3.96 138.36-2.1 140.75-2.1L140.75-2.1Q145.88-2.1 147.32-7.08L147.32-7.08 147.32-26.42 150.06-26.42 150.06 0 147.42 0ZM170.49-6.49L170.49-6.49Q170.49-8.2 169.07-9.48 167.66-10.77 164.27-12.29 160.89-13.82 159.55-14.83 158.21-15.84 157.57-17.04 156.94-18.24 156.94-19.87L156.94-19.87Q156.94-22.92 159.14-24.91 161.33-26.9 164.82-26.9L164.82-26.9Q168.58-26.9 170.83-24.78 173.08-22.66 173.08-19.17L173.08-19.17 170.37-19.17Q170.37-21.41 168.83-22.89 167.29-24.37 164.82-24.37L164.82-24.37Q162.43-24.37 161.03-23.14 159.62-21.92 159.62-19.97L159.62-19.97Q159.62-18.38 160.7-17.38 161.77-16.38 165.34-14.67L165.34-14.67Q169.02-13.06 170.41-12.01 171.81-10.96 172.51-9.68 173.22-8.4 173.22-6.64L173.22-6.64Q173.22-3.37 170.95-1.44 168.68 0.49 164.97 0.49L164.97 0.49Q161.04 0.49 158.61-1.66 156.18-3.81 156.18-7.2L156.18-7.2 158.92-7.2Q159.04-4.74 160.56-3.38 162.09-2.03 164.97-2.03L164.97-2.03Q167.46-2.03 168.97-3.25 170.49-4.47 170.49-6.49ZM188.31 0.49L188.31 0.49Q183.64 0.49 181.01-2.56 178.37-5.62 178.32-11.25L178.32-11.25 178.32-14.48Q178.32-20.29 180.86-23.6 183.4-26.9 187.84-26.9L187.84-26.9Q192.14-26.9 194.4-24.1 196.66-21.29 196.71-15.5L196.71-15.5 196.71-12.96 181.01-12.96 181.01-11.47Q181.01-6.93 182.95-4.47 184.89-2 188.43-2L188.43-2Q192.34-2 194.75-4.86L194.75-4.86 196.17-3.05Q193.58 0.49 188.31 0.49ZM187.84-24.37L187.84-24.37Q184.65-24.37 182.92-22.11 181.2-19.85 181.03-15.5L181.03-15.5 194-15.5 194-16.21Q193.8-24.37 187.84-24.37ZM216.67 0L216.63-3.15Q214.38 0.49 209.67 0.49L209.67 0.49Q206.08 0.49 204.25-2 202.42-4.49 202.39-9.33L202.39-9.33 202.39-26.42 205.08-26.42 205.08-9.4Q205.08-5.81 206.35-3.96 207.62-2.1 210.01-2.1L210.01-2.1Q215.14-2.1 216.58-7.08L216.58-7.08 216.58-26.42 219.31-26.42 219.31 0 216.67 0ZM226.44-26.42L229.03-26.42 229.1-22.46Q231.56-26.9 236.18-26.9L236.18-26.9Q241.28-26.9 242.77-22.05L242.77-22.05Q244.02-24.46 245.98-25.68 247.95-26.9 250.27-26.9L250.27-26.9Q257.39-26.9 257.57-17.72L257.57-17.72 257.57 0 254.86 0 254.86-17.55Q254.81-20.97 253.59-22.64 252.37-24.32 249.58-24.32L249.58-24.32Q247.07-24.27 245.33-22.36 243.6-20.46 243.36-17.58L243.36-17.58 243.36 0 240.62 0 240.62-17.48Q240.62-20.95 239.34-22.63 238.06-24.32 235.35-24.32L235.35-24.32Q233.13-24.32 231.5-22.78 229.88-21.24 229.15-18.38L229.15-18.38 229.15 0 226.44 0 226.44-26.42ZM292.72 0L289.84 0Q289.47-1.27 289.35-3.66L289.35-3.66Q288.13-1.68 286.21-0.6 284.29 0.49 282.05 0.49L282.05 0.49Q278.63 0.49 276.73-1.44 274.82-3.37 274.82-6.93L274.82-6.93Q274.82-10.82 277.47-13.09 280.12-15.36 284.78-15.38L284.78-15.38 289.32-15.38 289.32-19.07Q289.32-21.9 287.92-23.13 286.52-24.37 283.81-24.37L283.81-24.37Q281.29-24.37 279.68-22.9 278.07-21.44 278.07-19.12L278.07-19.12 275.36-19.14Q275.36-22.39 277.8-24.65 280.24-26.9 283.93-26.9L283.93-26.9Q287.91-26.9 289.96-24.9 292.01-22.9 292.01-19.07L292.01-19.07 292.01-6.1Q292.01-2.22 292.72-0.29L292.72-0.29 292.72 0ZM282.39-2.12L282.39-2.12Q284.78-2.12 286.63-3.37 288.47-4.61 289.32-6.69L289.32-6.69 289.32-13.11 285.03-13.11Q281.32-13.06 279.44-11.46 277.56-9.86 277.56-7.15L277.56-7.15Q277.56-2.12 282.39-2.12ZM317.42-14.62L317.42-11.96Q317.42-5.86 315.3-2.69 313.17 0.49 308.95 0.49L308.95 0.49Q304.36 0.49 302.09-3.17L302.09-3.17 302.09 10.16 299.4 10.16 299.4-26.42 301.89-26.42 302.02-22.8Q304.36-26.9 308.88-26.9L308.88-26.9Q313.15-26.9 315.27-23.88 317.4-20.85 317.42-14.62L317.42-14.62ZM314.71-11.79L314.71-14.43Q314.71-19.51 313.14-21.9 311.56-24.29 308.22-24.29L308.22-24.29Q303.92-24.29 302.09-19.92L302.09-19.92 302.09-6.01Q303.92-2.03 308.27-2.03L308.27-2.03Q311.54-2.03 313.11-4.42 314.69-6.81 314.71-11.79L314.71-11.79ZM326.74-26.42L326.74 0 324.01 0 324.01-26.42 326.74-26.42ZM323.62-34.03L323.62-34.03Q323.62-34.86 324.08-35.45 324.55-36.04 325.4-36.04 326.26-36.04 326.73-35.45 327.21-34.86 327.21-34.03 327.21-33.2 326.73-32.63 326.26-32.06 325.4-32.06 324.55-32.06 324.08-32.63 323.62-33.2 323.62-34.03Z" opacity="1" transform="matrix(1,0,0,1,0,0)" fill="#000000" class="slogan-text-1" data-fill-palette-color="secondary" id="text-1"></path></svg></g></svg></g></svg></g></svg></g></svg></g></svg></g></svg></g><path d="M119.117 41.215L119.117 0 366.317 0 366.317 247.2 119.117 247.2 119.117 205.985 128.116 205.985 128.116 238.202 357.319 238.202 357.319 8.998 128.116 8.998 128.116 41.215Z" fill="#000000" stroke="transparent" data-fill-palette-color="tertiary"></path></svg></g><defs></defs></svg><rect width="395.52" height="247.2" fill="none" stroke="none" visibility="hidden"></rect></g></svg></g></svg>